<svg width="1120" height="840" viewBox="0 0 1120 840" fill="none" xmlns="http://www.w3.org/2000/svg">
  <rect width="1120" height="840" rx="18" fill="#FFFFFF"/>
  <rect x="52" y="50" width="1016" height="740" rx="14" fill="#EEF3F0" stroke="#D7DFDC" stroke-width="2"/>
  <rect x="94" y="94" width="932" height="88" rx="12" fill="#17201D"/>
  <circle cx="140" cy="138" r="18" fill="#F1B84B"/>
  <rect x="184" y="122" width="250" height="16" rx="8" fill="#FFFFFF"/>
  <rect x="184" y="150" width="150" height="10" rx="5" fill="#AAB5AA"/>
  <rect x="746" y="118" width="96" height="36" rx="8" fill="#1F6B50"/>
  <rect x="858" y="118" width="126" height="36" rx="8" fill="#D86145"/>
  <rect x="94" y="224" width="284" height="246" rx="12" fill="#FFFFFF" stroke="#D7DFDC" stroke-width="2"/>
  <rect x="420" y="224" width="284" height="246" rx="12" fill="#FFFFFF" stroke="#D7DFDC" stroke-width="2"/>
  <rect x="746" y="224" width="280" height="246" rx="12" fill="#FFFFFF" stroke="#D7DFDC" stroke-width="2"/>
  <rect x="122" y="252" width="76" height="24" rx="12" fill="#326B9B"/>
  <rect x="448" y="252" width="76" height="24" rx="12" fill="#1F6B50"/>
  <rect x="774" y="252" width="76" height="24" rx="12" fill="#D86145"/>
  <rect x="122" y="308" width="190" height="18" rx="9" fill="#17201D"/>
  <rect x="448" y="308" width="176" height="18" rx="9" fill="#17201D"/>
  <rect x="774" y="308" width="168" height="18" rx="9" fill="#17201D"/>
  <rect x="122" y="346" width="220" height="12" rx="6" fill="#667069"/>
  <rect x="122" y="372" width="182" height="12" rx="6" fill="#AAB5AA"/>
  <rect x="448" y="346" width="212" height="12" rx="6" fill="#667069"/>
  <rect x="448" y="372" width="162" height="12" rx="6" fill="#AAB5AA"/>
  <rect x="774" y="346" width="210" height="12" rx="6" fill="#667069"/>
  <rect x="774" y="372" width="154" height="12" rx="6" fill="#AAB5AA"/>
  <path d="M122 424H342" stroke="#D7DFDC" stroke-width="2"/>
  <path d="M448 424H660" stroke="#D7DFDC" stroke-width="2"/>
  <path d="M774 424H984" stroke="#D7DFDC" stroke-width="2"/>
  <circle cx="128" cy="450" r="6" fill="#1F6B50"/>
  <circle cx="454" cy="450" r="6" fill="#1F6B50"/>
  <circle cx="780" cy="450" r="6" fill="#1F6B50"/>
  <rect x="144" y="444" width="118" height="12" rx="6" fill="#667069"/>
  <rect x="470" y="444" width="126" height="12" rx="6" fill="#667069"/>
  <rect x="796" y="444" width="132" height="12" rx="6" fill="#667069"/>
  <rect x="94" y="520" width="608" height="198" rx="12" fill="#17201D"/>
  <rect x="128" y="554" width="190" height="18" rx="9" fill="#FFFFFF"/>
  <rect x="128" y="590" width="498" height="48" rx="10" fill="#2E3834"/>
  <rect x="128" y="654" width="388" height="38" rx="10" fill="#FFFFFF"/>
  <rect x="534" y="654" width="92" height="38" rx="10" fill="#F1B84B"/>
  <circle cx="666" cy="570" r="10" fill="#F1B84B"/>
  <rect x="746" y="520" width="280" height="198" rx="12" fill="#FFFFFF" stroke="#D7DFDC" stroke-width="2"/>
  <rect x="774" y="554" width="142" height="18" rx="9" fill="#17201D"/>
  <rect x="774" y="596" width="210" height="12" rx="6" fill="#667069"/>
  <rect x="774" y="624" width="178" height="12" rx="6" fill="#AAB5AA"/>
  <rect x="774" y="652" width="190" height="12" rx="6" fill="#AAB5AA"/>
  <path d="M616 476C655 498 671 508 704 542" stroke="#D86145" stroke-width="6" stroke-linecap="round"/>
  <path d="M704 542L676 536" stroke="#D86145" stroke-width="6" stroke-linecap="round"/>
  <path d="M704 542L696 514" stroke="#D86145" stroke-width="6" stroke-linecap="round"/>
</svg>
